
<svg width="90" height="90" fill="none" xmlns="http://www.w3.org/2000/svg"><path d="M16.81 38.64 5 51.61l12.2-8.65c-.28-1.51-.41-2.96-.39-4.32zM27.89 62.33c-.77-.77-1.5-1.57-2.21-2.41L5.1 84.79l24.84-20.56c-.71-.61-1.39-1.24-2.04-1.9h-.01z" fill="#F7C631"/><path d="M74.65 50.89 39.33 15.57 22.71 32.19c-5.55 5.55-.9 19.14 7.64 27.68 3.42 3.42 7.64 6.21 11.84 7.98l14.73-11.51-5.3 6.6c-.09.09-.18.18-.26.29l-3.49 4.38-1.37 1.7h.01l-12.35 15.5 18.81-14.99c2.01-.26 3.76-1 5.06-2.3L74.65 50.9v-.01z" fill="#F7C631"/><path d="m39.33 15.57-5.95 5.95c-1.18 7.3 3.68 18.22 10.39 24.93 6.31 6.31 16.75 11.36 24.31 11.01l6.57-6.57-35.32-35.32z" fill="#CF8D1B"/><path d="M46.97 43.25c8.54 8.54 22.13 13.19 27.68 7.64 10.86-10.86 13.16-36.1 6.97-42.29-6.19-6.19-31.42-3.9-42.29 6.97-5.55 5.55-.9 19.14 7.64 27.68z" fill="#F7C631"/><path d="M25.24 36.23s4.13-1.77 9.44-4.44a28.91 28.91 0 0 1-1.22-4.8c-5.01 5.04-8.22 9.24-8.22 9.24zM36.34 64.7c1.9 1.24 3.88 2.3 5.85 3.14l13.89-10.85c.54-.54 1.06-1.07 1.57-1.6a42.94 42.94 0 0 1-6.68-3.34c-4.15 3.54-9.01 7.74-14.62 12.66l-.01-.01zM60.13 10.36c-6.02.93-12.12 4.4-17.49 8.51-2 1.53-3.9 3.15-5.66 4.76.15 1.97.65 4.09 1.43 6.24 3.2-1.71 6.57-3.64 9.59-5.65 1.36-.9 2.65-1.82 3.82-2.74 9.43-7.41 22.33-12.02 22.33-12.02s-5.82-.36-14.01.9h-.01zM64.49 40.72c-2.44 1.99-5.76 4.74-10 8.32 2.04 1.2 4.13 2.18 6.19 2.9 2.74-3.32 4.72-6.4 6.11-8.91 2.18-3.93 2.93-6.5 2.93-6.5s-1.71 1.32-5.24 4.2l.01-.01z" fill="#FCE26A" style="mix-blend-mode:overlay" opacity=".5"/></svg>