
<svg width="90" height="90" fill="none" xmlns="http://www.w3.org/2000/svg"><path d="M55.45 35.28v17.47l2.42-.12V85h25.31c1.79 0 1.82-1.82 1.82-1.82V62.46H60.15V35.28h-4.7z" fill="#7A4414"/><path d="M60.15 65.27v-5.73h23.03c1.92 0 1.82 1.82 1.82 1.82v3.91H60.15z" fill="#B37314"/><path d="M60.15 35.28h-30.3V85h30.3V35.28z" fill="#E3AA24"/><path d="M29.85 85V36.18h30.3C38.21 54.63 29.85 85 29.85 85z" fill="#F7C631"/><path d="M29.85 36.18v-3.91s-.03-1.82 1.82-1.82h26.67c2.15 0 1.82 1.82 1.82 1.82v3.91H29.85z" fill="#FCE26A"/><path d="M29.85 85H7.57C4.85 85 5 82.09 5 82.09V53.46h24.85V85z" fill="#B3ACA8"/><path d="M5 82.09V54.36h24.85C17.76 64.52 12.72 72.82 8.99 84.99H7.56c-2.82 0-2.57-2.91-2.57-2.91l.01.01z" fill="#D1CCC5"/><path d="M5 54.37v-3.55s-.16-2.18 1.96-2.18h22.89v5.73H5z" fill="#E8E6E1"/><path d="M9.78 41.36a7.816 7.816 0 0 1 2.75-5.86c1.51-1.31 3.23-2.22 4.59-3.08 1.34-.88 2.3-1.74 2.3-2.93 0-1.36-.91-2.2-2.27-2.2-2.27 0-2.9 1.64-2.93 3.56h-4.01c-.25-4.37 2.52-7.32 6.91-7.32 3.49 0 6.59 1.82 6.59 5.58 0 3.38-2.42 4.64-4.99 6.24-1.34.83-2.05 1.26-3.18 2.37h8.36v3.63H9.79l-.01.01z" fill="#D1CCC5"/><path d="M71.56 41.29c.38-.03.76.05 1.13.03 1.26 0 2.85-.33 2.85-1.84 0-1.13-1.13-1.76-2.52-1.76-1.74 0-2.75.91-2.73 2.5h-4.01c.1-3.94 2.95-5.98 6.71-5.98 3.05 0 6.56 1.29 6.56 4.87 0 1.54-.83 3.16-2.45 3.43v.05c2.02.53 3 1.97 3 4.04 0 3.99-3.63 5.65-7.12 5.65-4.11 0-7.45-2.09-7.19-6.61h4.01c-.05 2.1.98 3.13 3.15 3.13 1.46 0 2.85-.63 2.85-2.17 0-1.94-1.41-2.4-3.13-2.4-.38 0-.76.03-1.13.05V41.3l.02-.01z" fill="#B37314"/><path d="M47.28 18.53V5h-3.56c-.18 2.78-2.73 3.68-5.2 3.63v3.15h4.22v6.74h-4.11v4.54h12.66v-4.54h-4.01v.01z" fill="#F7C631"/><path d="M60.15 85V65.27H85C76.57 72.36 70.69 75.56 66.63 85h-6.48z" fill="#99580E"/></svg>