
<svg width="90" height="90" fill="none" xmlns="http://www.w3.org/2000/svg"><g clip-path="url(#a)"><path d="M50.42 8.14H39.57v8.36h10.85V8.14z" fill="#5D9948"/><path d="M55.12 0H34.89a2.92 2.92 0 0 0-2.92 2.92v4.41a2.92 2.92 0 0 0 2.92 2.92h20.23a2.92 2.92 0 0 0 2.92-2.92V2.92A2.92 2.92 0 0 0 55.12 0z" fill="#81B64C"/><path d="M45 90c20.97 0 37.97-17 37.97-37.97S65.97 14.06 45 14.06s-37.97 17-37.97 37.97S24.03 90 45 90z" fill="#5D9948"/><path d="M66.58 20.78A37.798 37.798 0 0 0 45 14.05c-20.97 0-37.97 17-37.97 37.98 0 8.99 3.13 17.25 8.35 23.75 27.87-3.52 49.64-26.57 51.21-55h-.01z" fill="#81B64C"/><path d="M45 78.8c14.785 0 26.77-11.985 26.77-26.77S59.785 25.26 45 25.26 18.23 37.245 18.23 52.03 30.215 78.8 45 78.8z" fill="#E8E6E1"/><path d="M64.43 33.62c-4.88-5.15-11.78-8.37-19.43-8.37-14.78 0-26.77 11.98-26.77 26.77 0 8.34 3.81 15.78 9.79 20.69 17.58-6.4 31.24-20.96 36.41-39.09z" fill="#fff"/><path d="m51.19 50.67-5.54-16.08a.622.622 0 0 0-.64-.58c-.3 0-.6.19-.64.58l-5.54 16.08c-.21.64-.33 1.33-.33 2.04a6.521 6.521 0 0 0 13.04 0c0-.71-.12-1.4-.33-2.04h-.02z" fill="#5D9948"/><path d="M45 34.01c-.3 0-.6.19-.64.58l-5.54 16.08c-.21.64-.33 1.33-.33 2.04 0 3.6 2.92 6.52 6.52 6.52V34.01H45z" fill="#81B64C"/><path d="M45 23.98c-15.49 0-28.05 12.56-28.05 28.05S29.51 80.08 45 80.08s28.05-12.56 28.05-28.05S60.49 23.98 45 23.98zm0 54.07c-14.37 0-26.02-11.65-26.02-26.02S30.63 26.01 45 26.01s26.02 11.65 26.02 26.02S59.37 78.05 45 78.05z" fill="#45753C"/></g><defs><clipPath id="a"><path fill="#fff" d="M0 0h90v90H0z"/></clipPath></defs></svg>